<?xml version="1.0" encoding="UTF-8" standalone="no"?>
<!-- Created with Inkscape (http://www.inkscape.org/) -->

<svg
   xmlns:dc="http://purl.org/dc/elements/1.1/"
   xmlns:cc="http://creativecommons.org/ns#"
   xmlns:rdf="http://www.w3.org/1999/02/22-rdf-syntax-ns#"
   xmlns:svg="http://www.w3.org/2000/svg"
   xmlns="http://www.w3.org/2000/svg"
   xmlns:sodipodi="http://sodipodi.sourceforge.net/DTD/sodipodi-0.dtd"
   xmlns:inkscape="http://www.inkscape.org/namespaces/inkscape"
   sodipodi:docname="tech.svg"
   inkscape:version="0.91 r13725"
   version="1.1"
   id="svg4459"
   viewBox="0 0 744.09448819 1052.3622047"
   height="297mm"
   width="210mm">
  <sodipodi:namedview
     inkscape:window-maximized="1"
     inkscape:window-y="24"
     inkscape:window-x="65"
     inkscape:window-height="744"
     inkscape:window-width="1301"
     showgrid="false"
     inkscape:current-layer="layer1"
     inkscape:document-units="px"
     inkscape:cy="538.46191"
     inkscape:cx="241.82645"
     inkscape:zoom="0.98994949"
     inkscape:pageshadow="2"
     inkscape:pageopacity="0.0"
     borderopacity="1.0"
     bordercolor="#666666"
     pagecolor="#ffffff"
     id="base" />
  <defs
     id="defs4461" />
  <metadata
     id="metadata4464">
    <rdf:RDF>
      <cc:Work
         rdf:about="">
        <dc:format>image/svg+xml</dc:format>
        <dc:type
           rdf:resource="http://purl.org/dc/dcmitype/StillImage" />
        <dc:title />
      </cc:Work>
    </rdf:RDF>
  </metadata>
  <g
     inkscape:label="Layer 1"
     inkscape:groupmode="layer"
     id="layer1">
    <path
       style="display:inline;opacity:1;fill:#00e000;fill-opacity:1;stroke:none;stroke-width:2;stroke-linecap:round;stroke-linejoin:round;stroke-miterlimit:4;stroke-dasharray:none;stroke-opacity:1"
       d="m 322.97244,469.51819 a 15.449186,15.449186 0 0 1 -11.78885,15.00931 15.449186,15.449186 0 0 1 -17.37505,-7.89708 15.449186,15.449186 0 0 1 3.5556,-18.75137 l 10.15912,11.63914 z"
       id="circle4976"
       inkscape:connector-curvature="0" />
    <path
       style="display:inline;opacity:1;fill:#00e000;fill-opacity:1;stroke:none;stroke-width:2;stroke-linecap:round;stroke-linejoin:round;stroke-miterlimit:4;stroke-dasharray:none;stroke-opacity:1"
       d="m 539.26724,471.42322 a 15.449186,15.449186 0 0 1 -11.9159,15.03972 15.449186,15.449186 0 0 1 -17.36632,-8.16044 15.449186,15.449186 0 0 1 3.97242,-18.77237 15.449186,15.449186 0 0 1 19.18334,-0.42617 l -9.32272,12.31926 z"
       id="path5065"
       inkscape:connector-curvature="0" />
    <path
       inkscape:connector-curvature="0"
       id="path5188"
       d="m 292.07355,469.51745 c 0,5.86174 -3.29805,11.09829 -8.32283,13.70907 -1.08068,0.5615 -2.24123,1.00155 -3.46602,1.30024 -4.43922,1.0826 -8.98418,0.1282 -12.53789,-2.36462 -1.98564,-1.39285 -3.66181,-3.266 -4.83716,-5.53246 -1.50256,-2.89743 -2.00817,-6.09352 -1.59865,-9.1568 0.48414,-3.62143 2.24728,-7.05725 5.15425,-9.59457 0,0 1.73406,1.98669 3.76935,4.31848 2.891,3.31218 6.38977,7.32066 6.38977,7.32066 0,0 1.16959,0 2.86515,0 4.46684,0 12.58403,0 12.58403,0"
       style="display:inline;opacity:1;fill:#00e000;fill-opacity:1;stroke:none;stroke-width:2;stroke-linecap:round;stroke-linejoin:round;stroke-miterlimit:4;stroke-dasharray:none;stroke-opacity:1" />
    <path
       inkscape:connector-curvature="0"
       id="path5190"
       d="m 353.63074,469.87219 c 0,6.07998 -3.57083,11.48184 -8.92168,13.93085 -1.15253,0.52711 -2.37326,0.91378 -3.64206,1.14676 -4.59705,0.84456 -9.21053,-0.47805 -12.58892,-3.39382 -1.88834,-1.63054 -3.36338,-3.7048 -4.27922,-6.08612 -1.17084,-3.04395 -1.27929,-6.30299 -0.42188,-9.28366 1.0131,-3.52332 3.2694,-6.56996 6.4308,-8.54084 0.37627,0.0731 2.18512,1.88656 4.20276,4.07307 2.40917,2.76015 4.58347,7.08017 4.12493,7.68609 -0.2053,0.27129 0.62075,0.46767 2.03372,0.46767 3.72236,0 13.06155,0 13.06155,0"
       style="display:inline;opacity:1;fill:#00e000;fill-opacity:1;stroke:none;stroke-width:2;stroke-linecap:round;stroke-linejoin:round;stroke-miterlimit:4;stroke-dasharray:none;stroke-opacity:1" />
    <path
       inkscape:connector-curvature="0"
       id="path5192"
       d="m 384.40876,470.19671 c 0,6.29823 -3.84362,11.8654 -9.52052,14.15262 -1.22438,0.49272 -2.50531,0.82601 -3.8181,0.99329 -4.75489,0.60652 -9.4369,-1.0843 -12.63995,-4.42302 -1.79106,-1.86824 -3.06496,-4.14361 -3.72128,-6.63978 -0.83912,-3.19048 -0.55042,-6.51245 0.75488,-9.41052 1.54206,-3.42521 4.29152,-6.08268 7.70735,-7.48712 0.75254,0.1462 2.63618,1.78645 4.63616,3.82767 1.92734,2.20812 2.77718,6.83967 1.86011,8.05152 -0.41061,0.54258 0.0719,0.93534 1.20227,0.93534 2.97789,0 13.53908,0 13.53908,0"
       style="display:inline;opacity:1;fill:#00e000;fill-opacity:1;stroke:none;stroke-width:2;stroke-linecap:round;stroke-linejoin:round;stroke-miterlimit:4;stroke-dasharray:none;stroke-opacity:1" />
    <path
       inkscape:connector-curvature="0"
       id="path5194"
       d="m 415.28647,470.49609 c 0,6.51647 -4.1164,12.24896 -10.11937,14.3744 -1.29623,0.45833 -2.63734,0.73824 -3.99414,0.83981 -4.91272,0.36849 -9.66325,-1.69055 -12.69097,-5.45222 -1.69377,-2.10593 -2.76653,-4.58241 -3.16335,-7.19344 -0.5074,-3.337 0.17845,-6.72192 1.93166,-9.53738 2.07101,-3.32711 5.31362,-5.59539 8.98388,-6.43339 1.12881,0.2193 3.08725,1.68632 5.06958,3.58226 1.44551,1.65609 0.97089,6.59918 -0.40473,8.41695 -0.6159,0.81387 -0.47695,1.40301 0.37084,1.40301 2.23341,0 14.0166,0 14.0166,0"
       style="display:inline;opacity:1;fill:#00e000;fill-opacity:1;stroke:none;stroke-width:2;stroke-linecap:round;stroke-linejoin:round;stroke-miterlimit:4;stroke-dasharray:none;stroke-opacity:1" />
    <path
       inkscape:connector-curvature="0"
       id="path5196"
       d="m 446.24741,470.77441 c 0,6.73472 -4.38919,12.63252 -10.71821,14.59617 -1.36808,0.42394 -2.76938,0.65047 -4.17018,0.68635 -5.07056,0.13044 -9.88962,-2.29681 -12.742,-6.48144 -1.59649,-2.34361 -2.46811,-5.02121 -2.60541,-7.74709 -0.17568,-3.48353 0.90732,-6.93139 3.10842,-9.66424 2.59998,-3.229 6.33574,-5.1081 10.26043,-5.37966 1.50508,0.2924 3.53831,1.5862 5.50299,3.33685 0.96367,1.10406 -0.83541,6.35869 -2.66956,8.78238 -0.82121,1.08516 -1.0258,1.87068 -0.46061,1.87068 1.48895,0 14.49413,0 14.49413,0"
       style="display:inline;opacity:1;fill:#00e000;fill-opacity:1;stroke:none;stroke-width:2;stroke-linecap:round;stroke-linejoin:round;stroke-miterlimit:4;stroke-dasharray:none;stroke-opacity:1" />
    <path
       inkscape:connector-curvature="0"
       id="path5198"
       d="m 477.27849,471.05328 c 0,6.95296 -4.66197,13.01608 -11.31706,14.81795 -1.43993,0.38955 -2.90141,0.5627 -4.34622,0.53287 -5.22839,-0.10759 -10.11597,-2.90306 -12.79303,-7.51064 -1.49919,-2.5813 -2.16968,-5.46001 -2.04747,-8.30075 0.15604,-3.63005 1.6362,-7.14086 4.28519,-9.7911 3.12894,-3.13089 7.35786,-4.62082 11.53698,-4.32593 1.88135,0.36549 3.98936,1.48607 5.9364,3.09144 0.48184,0.55203 -2.64171,6.11819 -4.9344,9.14781 -1.02651,1.35645 -1.57464,2.33835 -1.29204,2.33835 0.74447,0 14.97165,0 14.97165,0"
       style="display:inline;opacity:1;fill:#00e000;fill-opacity:1;stroke:none;stroke-width:2;stroke-linecap:round;stroke-linejoin:round;stroke-miterlimit:4;stroke-dasharray:none;stroke-opacity:1" />
    <path
       inkscape:connector-curvature="0"
       id="path5200"
       d="m 508.36843,471.42247 c 0,7.17121 -4.93476,13.39964 -11.9159,15.03972 -1.51179,0.35516 -3.03346,0.47493 -4.52227,0.3794 -5.38623,-0.34563 -10.34232,-3.50931 -12.84405,-8.53984 -1.40191,-2.819 -1.87126,-5.89882 -1.48953,-8.85441 0.48776,-3.77657 2.36507,-7.35032 5.46195,-9.91796 3.6579,-3.03278 8.37997,-4.13353 12.81353,-3.27221 2.25762,0.4386 4.44042,1.38596 6.36981,2.84604 0,0 -4.44801,5.8777 -7.19923,9.51323 -1.23182,1.62776 -2.12349,2.80603 -2.12349,2.80603 0,0 15.44918,0 15.44918,0"
       style="display:inline;opacity:1;fill:#00e000;fill-opacity:1;stroke:none;stroke-width:2;stroke-linecap:round;stroke-linejoin:round;stroke-miterlimit:4;stroke-dasharray:none;stroke-opacity:1" />
    <path
       style="display:inline;opacity:1;fill:#00e000;fill-opacity:1;stroke:none;stroke-width:2;stroke-linecap:round;stroke-linejoin:round;stroke-miterlimit:4;stroke-dasharray:none;stroke-opacity:1"
       d="m 539.26801,511.42239 c 0,7.17121 -4.93476,13.39964 -11.9159,15.03972 -1.51179,0.35516 -3.03346,0.47493 -4.52227,0.3794 -5.38623,-0.34563 -10.34232,-3.50931 -12.84405,-8.53984 -1.40191,-2.819 -1.87126,-5.89882 -1.48953,-8.85441 0.48776,-3.77657 2.36507,-7.35032 5.46195,-9.91796 3.6579,-3.03278 8.37997,-4.13353 12.81353,-3.27221 2.25762,0.4386 4.44042,1.38596 6.36981,2.84604 0,0 -4.44801,5.8777 -7.19923,9.51323 -1.23182,1.62776 -2.12349,2.80603 -2.12349,2.80603 0,0 15.44918,0 15.44918,0"
       id="path5217"
       inkscape:connector-curvature="0" />
    <path
       inkscape:connector-curvature="0"
       id="path5219"
       d="m 292.07355,511.42239 c 0,7.17121 -4.93476,13.39964 -11.9159,15.03972 -1.51179,0.35516 -3.03346,0.47493 -4.52227,0.3794 -5.38623,-0.34563 -10.34232,-3.50931 -12.84405,-8.53984 -1.40191,-2.819 -1.87126,-5.89882 -1.48953,-8.85441 0.48776,-3.77657 2.36507,-7.35032 5.46195,-9.91796 3.6579,-3.03278 8.37997,-4.13353 12.81353,-3.27221 2.25762,0.4386 4.44042,1.38596 6.36981,2.84604 l 3.99594,4.61406 1.66197,8.11346 -14.98063,-0.40826 15.44918,0"
       style="display:inline;opacity:1;fill:#00e000;fill-opacity:1;stroke:none;stroke-width:2;stroke-linecap:round;stroke-linejoin:round;stroke-miterlimit:4;stroke-dasharray:none;stroke-opacity:1"
       sodipodi:nodetypes="cssssssccccc" />
    <path
       id="path5242"
       d="m 508.36871,511.4224 c 0,6.40874 -3.94119,12.06453 -9.762,14.36536 -0.69252,0.27373 -1.41164,0.49998 -2.1539,0.67436 -0.5898,0.13856 -1.18111,0.24129 -1.77139,0.30939 -0.92272,0.10645 -1.84291,0.12827 -2.75088,0.07 -3.91015,-0.25091 -7.5936,-1.98695 -10.27595,-4.84421 -1.01258,-1.07862 -1.88251,-2.31702 -2.5681,-3.69563 -0.54454,-1.09498 -0.94838,-2.22931 -1.21629,-3.38042 -0.42183,-1.81241 -0.5067,-3.66643 -0.27324,-5.47399 0.20554,-1.5914 0.65781,-3.14678 1.3441,-4.60604 0.94236,-2.00374 2.32595,-3.82625 4.11785,-5.31192 1.42172,-1.17876 3.00421,-2.06565 4.66803,-2.65891 1.98508,-0.70782 4.08594,-0.99767 6.1677,-0.86656 0.66265,0.0417 1.32337,0.12612 1.9778,0.25326 1.11834,0.21727 2.21832,0.55937 3.27823,1.0268 1.07976,0.47618 2.11794,1.08243 3.09158,1.81924 0,0 -0.96922,1.28075 -2.28264,3.01633 -1.50026,1.98249 -3.44963,4.55842 -4.91659,6.4969 -1.23182,1.62776 -2.12349,2.80603 -2.12349,2.80603 0,0 0.65052,0 1.68459,0 4.00524,0 13.76459,0 13.76459,0"
       style="display:inline;opacity:1;fill:#00e000;fill-opacity:1;stroke:none;stroke-width:2;stroke-linecap:round;stroke-linejoin:round;stroke-miterlimit:4;stroke-dasharray:none;stroke-opacity:1"
       inkscape:connector-curvature="0" />
    <path
       id="path5244"
       d="m 477.39451,511.27481 c 0,6.53582 -4.10678,12.28705 -10.12098,14.47775 -0.71613,0.26077 -1.45492,0.47003 -2.2123,0.62468 -0.60429,0.12305 -1.20937,0.20874 -1.81249,0.25835 -0.94163,0.0776 -1.87851,0.0673 -2.80015,-0.0259 -3.95109,-0.39682 -7.62419,-2.31771 -10.19621,-5.37588 -0.97235,-1.15728 -1.77878,-2.46087 -2.38683,-3.88376 -0.48383,-1.13666 -0.82046,-2.30778 -1.01509,-3.48868 -0.3076,-1.85041 -0.2668,-3.72563 0.10241,-5.53115 0.31989,-1.58077 0.89111,-3.10909 1.7003,-4.52187 1.12123,-1.94831 2.66401,-3.64782 4.56318,-4.96802 1.51551,-1.04923 3.17569,-1.78977 4.89397,-2.21971 2.03051,-0.51675 4.14503,-0.6004 6.20139,-0.24779 0.55221,0.0348 1.21498,0.23462 1.89261,0.49331 1.12198,0.40048 2.27014,0.95289 3.1534,1.34242 0.8998,0.39682 1.83188,1.22879 2.71132,2.17507 0.0704,0.34366 -0.66569,1.76049 -1.7602,3.20681 -1.25023,1.65207 -3.69725,3.77627 -5.62057,5.37257 -1.27532,1.34968 -2.25184,2.32521 -2.42772,2.32042 -0.19187,-0.005 0.22688,-0.009 1.0886,-0.009 3.3377,0 14.04536,0 14.04536,0"
       style="display:inline;opacity:1;fill:#00e000;fill-opacity:1;stroke:none;stroke-width:2;stroke-linecap:round;stroke-linejoin:round;stroke-miterlimit:4;stroke-dasharray:none;stroke-opacity:1"
       inkscape:connector-curvature="0" />
    <path
       id="path5246"
       d="m 446.45444,511.19398 c 0,6.6629 -4.27238,12.50957 -10.47997,14.59014 -0.73972,0.24782 -1.49819,0.44008 -2.27069,0.57501 -0.61877,0.10754 -1.23762,0.17617 -1.85359,0.2073 -0.96055,0.0488 -1.91411,0.006 -2.84941,-0.12186 -3.99205,-0.54274 -7.65478,-2.64847 -10.11649,-5.90756 -0.9321,-1.23594 -1.67504,-2.60471 -2.20556,-4.07189 -0.42312,-1.17835 -0.69253,-2.38624 -0.81388,-3.59694 -0.19338,-1.88842 -0.0269,-3.78484 0.47805,-5.58831 0.43425,-1.57014 1.12442,-3.0714 2.05651,-4.4377 1.3001,-1.89287 3.00207,-3.46939 5.0085,-4.62412 1.6093,-0.9197 3.34719,-1.5139 5.11992,-1.78051 2.07593,-0.32567 4.20411,-0.20312 6.23508,0.37098 0.44177,0.0278 1.10659,0.34313 1.80742,0.73335 1.12562,0.5837 2.32197,1.34642 3.02857,1.65804 0.71984,0.31746 1.54583,1.37516 2.33106,2.53091 0.14079,0.68731 -0.36216,2.24024 -1.23777,3.39729 -1.00018,1.32166 -3.94486,2.99412 -6.32455,4.24824 -1.31881,1.07161 -2.38018,1.8444 -2.73195,1.83481 -0.38373,-0.0105 -0.19675,-0.0172 0.49263,-0.0172 2.67016,0 14.32612,0 14.32612,0"
       style="display:inline;opacity:1;fill:#00e000;fill-opacity:1;stroke:none;stroke-width:2;stroke-linecap:round;stroke-linejoin:round;stroke-miterlimit:4;stroke-dasharray:none;stroke-opacity:1"
       inkscape:connector-curvature="0" />
    <path
       id="path5248"
       d="m 415.54507,511.17347 c 0,6.78998 -4.43797,12.73208 -10.83895,14.70254 -0.76333,0.23485 -1.54147,0.41012 -2.32909,0.52532 -0.63325,0.092 -1.26588,0.14362 -1.89469,0.15626 -0.97947,0.02 -1.94971,-0.0545 -2.89868,-0.2178 -4.03299,-0.68866 -7.68537,-2.97922 -10.03676,-6.43923 -0.89185,-1.3146 -1.5713,-2.74855 -2.02428,-4.26002 -0.36241,-1.22004 -0.56461,-2.46471 -0.61268,-3.70521 -0.0792,-1.92641 0.21299,-3.84403 0.8537,-5.64547 0.54861,-1.5595 1.35772,-3.0337 2.41271,-4.35352 1.47897,-1.83744 3.34012,-3.29095 5.45383,-4.28022 1.70308,-0.79018 3.51868,-1.23802 5.34587,-1.3413 2.12135,-0.13461 4.26318,0.19414 6.26876,0.98974 0.33132,0.0209 0.99819,0.45163 1.72223,0.9734 1.12925,0.76691 2.37379,1.73995 2.90375,1.97366 0.53988,0.23809 1.25977,1.52151 1.95078,2.88674 0.21119,1.03097 -0.0586,2.71998 -0.71532,3.58778 -0.75014,0.99124 -4.19248,2.21196 -7.02853,3.12389 -1.36231,0.79354 -2.50853,1.36359 -3.03618,1.34921 -0.5756,-0.0157 -0.62039,-0.0258 -0.10336,-0.0258 2.00262,0 14.60689,0 14.60689,0"
       style="display:inline;opacity:1;fill:#00e000;fill-opacity:1;stroke:none;stroke-width:2;stroke-linecap:round;stroke-linejoin:round;stroke-miterlimit:4;stroke-dasharray:none;stroke-opacity:1"
       inkscape:connector-curvature="0" />
    <path
       id="path5250"
       d="m 384.66367,511.20911 c 0,6.91705 -4.60357,12.9546 -11.19793,14.81493 -0.78694,0.22189 -1.58475,0.38017 -2.38748,0.47564 -0.64774,0.0765 -1.29414,0.11106 -1.9358,0.10521 -0.99838,-0.009 -1.98531,-0.11543 -2.94795,-0.31373 -4.07394,-0.83457 -7.71595,-3.30998 -9.95703,-6.97089 -0.8516,-1.39327 -1.46756,-2.8924 -1.84301,-4.44816 -0.3017,-1.26172 -0.43667,-2.54318 -0.41147,-3.81347 0.0351,-1.96441 0.45288,-3.90323 1.22934,-5.70263 0.66297,-1.54887 1.59102,-2.996 2.76891,-4.26935 1.65785,-1.78201 3.67819,-3.11252 5.89916,-3.93633 1.79687,-0.66064 3.69018,-0.96214 5.57182,-0.90209 2.16678,0.0565 4.32226,0.59142 6.30244,1.60851 0.22089,0.0139 0.88981,0.56013 1.63705,1.21345 1.13289,0.95012 2.42562,2.13347 2.77892,2.28928 0.35992,0.15872 0.97372,1.66787 1.57052,3.24256 0.28158,1.37464 0.24492,3.19974 -0.19289,3.77827 -0.50009,0.66083 -4.44009,1.4298 -7.73251,1.99956 -1.4058,0.51547 -2.63687,0.88277 -3.34041,0.8636 -0.76746,-0.0209 -1.04402,-0.0344 -0.69933,-0.0344 1.33508,0 14.88765,0 14.88765,0"
       style="display:inline;opacity:1;fill:#00e000;fill-opacity:1;stroke:none;stroke-width:2;stroke-linecap:round;stroke-linejoin:round;stroke-miterlimit:4;stroke-dasharray:none;stroke-opacity:1"
       inkscape:connector-curvature="0" />
    <path
       id="path5252"
       d="m 353.80743,511.29512 c 0,7.04413 -4.76916,13.17712 -11.55692,14.92733 -0.81053,0.20892 -1.62801,0.35021 -2.44587,0.42595 -0.66222,0.061 -1.3224,0.0785 -1.9769,0.0542 -1.0173,-0.0377 -2.02092,-0.17636 -2.99721,-0.40967 -4.1149,-0.98048 -7.74655,-3.64073 -9.8773,-7.50256 -0.81137,-1.47193 -1.36383,-3.03625 -1.66174,-4.63629 -0.24099,-1.30341 -0.30875,-2.62165 -0.21027,-3.92173 0.1493,-2.00241 0.69278,-3.96243 1.60499,-5.75979 0.77732,-1.53823 1.82432,-2.95831 3.12511,-4.18518 1.83673,-1.72657 4.01625,-2.93409 6.34449,-3.59243 1.89066,-0.53112 3.86167,-0.68627 5.79777,-0.46288 2.21219,0.24753 4.38134,0.98868 6.33612,2.22727 0.11044,0.007 0.78142,0.66864 1.55186,1.45349 1.13653,1.13334 2.47744,2.527 2.6541,2.6049 0.17996,0.0794 0.68766,1.81424 1.19025,3.5984 0.35198,1.71829 0.54845,3.67948 0.32955,3.96875 -0.25005,0.33041 -4.68771,0.64765 -8.43649,0.87523 -1.4493,0.23739 -2.76522,0.40196 -3.64464,0.37799 -0.95933,-0.0261 -1.46766,-0.043 -1.29532,-0.043 0.66754,0 15.16842,0 15.16842,0"
       style="display:inline;opacity:1;fill:#00e000;fill-opacity:1;stroke:none;stroke-width:2;stroke-linecap:round;stroke-linejoin:round;stroke-miterlimit:4;stroke-dasharray:none;stroke-opacity:1"
       inkscape:connector-curvature="0" />
    <path
       id="path5254"
       d="m 322.97282,511.42247 c 0,7.17121 -4.93476,13.39964 -11.9159,15.03972 -0.83414,0.19596 -1.67129,0.32026 -2.50427,0.37628 -0.6767,0.0455 -1.35065,0.0459 -2.018,0.003 -1.03622,-0.0665 -2.05652,-0.23729 -3.04648,-0.5056 -4.15584,-1.1264 -7.77713,-3.9715 -9.79757,-8.03424 -0.77112,-1.55059 -1.26009,-3.18009 -1.48047,-4.82442 -0.18027,-1.3451 -0.18082,-2.70012 -0.009,-4.02999 0.26353,-2.04042 0.93267,-4.02163 1.98063,-5.81695 0.89169,-1.5276 2.05763,-2.92062 3.48132,-4.10101 2.0156,-1.67114 4.3543,-2.75566 6.78981,-3.24853 1.98445,-0.40159 4.03316,-0.41039 6.02372,-0.0237 2.25762,0.4386 4.44042,1.38596 6.36981,2.84604 0,0 0.67303,0.77714 1.46667,1.69354 1.14017,1.31654 2.52927,2.92052 2.52927,2.92052 0,0 0.40161,1.9606 0.80999,3.95423 0.42237,2.06195 0.85198,4.15923 0.85198,4.15923 0,0 -4.93532,-0.1345 -9.14047,-0.2491 -1.49278,-0.0407 -2.89356,-0.0789 -3.94886,-0.10762 -1.1512,-0.0314 -1.8913,-0.0515 -1.8913,-0.0515 0,0 15.44918,0 15.44918,0"
       style="display:inline;opacity:1;fill:#00e000;fill-opacity:1;stroke:none;stroke-width:2;stroke-linecap:round;stroke-linejoin:round;stroke-miterlimit:4;stroke-dasharray:none;stroke-opacity:1"
       inkscape:connector-curvature="0" />
    <g
       id="g3422">
      <path
         d="m 492.69653,367.07648 a 15.449186,15.449186 0 0 1 -15.31031,15.44856 15.449186,15.449186 0 0 1 -15.58556,-15.17083 15.449186,15.449186 0 0 1 15.03011,-15.7213 l 0.41657,15.44357 z"
         sodipodi:end="4.6854214"
         sodipodi:start="0"
         sodipodi:ry="15.449186"
         sodipodi:rx="15.449186"
         sodipodi:cy="367.07648"
         sodipodi:cx="477.24734"
         sodipodi:type="arc"
         style="display:inline;opacity:1;fill:#00e000;fill-opacity:1;stroke:none;stroke-width:2;stroke-linecap:round;stroke-linejoin:round;stroke-miterlimit:4;stroke-dasharray:none;stroke-opacity:1"
         id="circle4976-2" />
      <circle
         r="15.449186"
         cy="367.07648"
         cx="477.24734"
         id="path4980-8"
         style="display:inline;opacity:1;fill:none;fill-opacity:1;stroke:#00da00;stroke-width:2;stroke-linecap:round;stroke-linejoin:round;stroke-miterlimit:4;stroke-dasharray:none;stroke-opacity:1" />
    </g>
    <g
       id="6"
       inkscape:label="#g3418">
      <path
         id="path5323"
         style="display:inline;opacity:1;fill:#00e000;fill-opacity:1;stroke:none;stroke-width:2;stroke-linecap:round;stroke-linejoin:round;stroke-miterlimit:4;stroke-dasharray:none;stroke-opacity:1"
         sodipodi:type="arc"
         sodipodi:cx="442.34897"
         sodipodi:cy="367.07648"
         sodipodi:rx="15.449186"
         sodipodi:ry="15.449186"
         sodipodi:start="0"
         sodipodi:end="3.9947833"
         d="m 457.79815,367.07648 a 15.449186,15.449186 0 0 1 -11.78885,15.0093 15.449186,15.449186 0 0 1 -17.37505,-7.89707 15.449186,15.449186 0 0 1 3.5556,-18.75138 l 10.15912,11.63915 z" />
      <circle
         style="display:inline;opacity:1;fill:none;fill-opacity:1;stroke:#00da00;stroke-width:2;stroke-linecap:round;stroke-linejoin:round;stroke-miterlimit:4;stroke-dasharray:none;stroke-opacity:1"
         id="circle5325"
         cx="442.34897"
         cy="367.07648"
         r="15.449186" />
    </g>
    <g
       id="5"
       inkscape:label="#g3414">
      <path
         d="m 422.89981,367.07648 a 15.449186,15.449186 0 0 1 -7.76743,13.40402 15.449186,15.449186 0 0 1 -15.49178,-0.0743 15.449186,15.449186 0 0 1 -7.63845,-13.47794 l 15.44847,0.14824 z"
         sodipodi:end="3.1511879"
         sodipodi:start="0"
         sodipodi:ry="15.449186"
         sodipodi:rx="15.449186"
         sodipodi:cy="367.07648"
         sodipodi:cx="407.45062"
         sodipodi:type="arc"
         style="display:inline;opacity:1;fill:#00e000;fill-opacity:1;stroke:none;stroke-width:2;stroke-linecap:round;stroke-linejoin:round;stroke-miterlimit:4;stroke-dasharray:none;stroke-opacity:1"
         id="path5327" />
      <circle
         r="15.449186"
         cy="367.07648"
         cx="407.45062"
         id="circle5329"
         style="display:inline;opacity:1;fill:none;fill-opacity:1;stroke:#00da00;stroke-width:2;stroke-linecap:round;stroke-linejoin:round;stroke-miterlimit:4;stroke-dasharray:none;stroke-opacity:1" />
    </g>
    <g
       id="4"
       inkscape:label="#g3410">
      <path
         id="path5331"
         style="display:inline;opacity:1;fill:#00e000;fill-opacity:1;stroke:none;stroke-width:2;stroke-linecap:round;stroke-linejoin:round;stroke-miterlimit:4;stroke-dasharray:none;stroke-opacity:1"
         sodipodi:type="arc"
         sodipodi:cx="372.55225"
         sodipodi:cy="367.07648"
         sodipodi:rx="15.449186"
         sodipodi:ry="15.449186"
         sodipodi:start="0"
         sodipodi:end="2.4615959"
         d="m 388.00143,367.07648 a 15.449186,15.449186 0 0 1 -10.2971,14.5648 15.449186,15.449186 0 0 1 -17.16498,-4.8505 l 12.0129,-9.7143 z" />
      <circle
         style="display:inline;opacity:1;fill:none;fill-opacity:1;stroke:#00da00;stroke-width:2;stroke-linecap:round;stroke-linejoin:round;stroke-miterlimit:4;stroke-dasharray:none;stroke-opacity:1"
         id="circle5333"
         cx="372.55225"
         cy="367.07648"
         r="15.449186" />
    </g>
    <g
       id="3"
       inkscape:label="#g3406">
      <path
         d="m 353.10306,367.07648 a 15.449186,15.449186 0 0 1 -4.56167,10.9608 15.449186,15.449186 0 0 1 -10.99116,4.48804 l 0.10364,-15.44884 z"
         sodipodi:end="1.577505"
         sodipodi:start="0"
         sodipodi:ry="15.449186"
         sodipodi:rx="15.449186"
         sodipodi:cy="367.07648"
         sodipodi:cx="337.65387"
         sodipodi:type="arc"
         style="display:inline;opacity:1;fill:#00e000;fill-opacity:1;stroke:none;stroke-width:2;stroke-linecap:round;stroke-linejoin:round;stroke-miterlimit:4;stroke-dasharray:none;stroke-opacity:1"
         id="path5335" />
      <circle
         r="15.449186"
         cy="367.07648"
         cx="337.65387"
         id="circle5337"
         style="display:inline;opacity:1;fill:none;fill-opacity:1;stroke:#00da00;stroke-width:2;stroke-linecap:round;stroke-linejoin:round;stroke-miterlimit:4;stroke-dasharray:none;stroke-opacity:1" />
    </g>
    <g
       id="2"
       inkscape:label="#g3402">
      <path
         id="path5339"
         style="display:inline;opacity:1;fill:#00e000;fill-opacity:1;stroke:none;stroke-width:2;stroke-linecap:round;stroke-linejoin:round;stroke-miterlimit:4;stroke-dasharray:none;stroke-opacity:1"
         sodipodi:type="arc"
         sodipodi:cx="302.75549"
         sodipodi:cy="367.07648"
         sodipodi:rx="15.449186"
         sodipodi:ry="15.449186"
         sodipodi:start="0"
         sodipodi:end="0.68902506"
         d="m 318.20468,367.07648 a 15.449186,15.449186 0 0 1 -3.52448,9.82236 l -11.92471,-9.82236 z" />
      <circle
         cx="302.75549"
         cy="367.07648"
         r="15.449186"
         style="display:inline;opacity:1;fill:none;fill-opacity:1;stroke:#00da00;stroke-width:2;stroke-linecap:round;stroke-linejoin:round;stroke-miterlimit:4;stroke-dasharray:none;stroke-opacity:1"
         id="circle5341" />
    </g>
    <circle
       style="display:inline;opacity:1;fill:none;fill-opacity:1;stroke:#00da00;stroke-width:2;stroke-linecap:round;stroke-linejoin:round;stroke-miterlimit:4;stroke-dasharray:none;stroke-opacity:1"
       id="0"
       cx="267.85712"
       cy="367.07648"
       r="15.449186"
       inkscape:export-filename="C:\Users\7yl4r\tech1_sheet.png"
       inkscape:export-xdpi="136.78487"
       inkscape:export-ydpi="136.78487"
       inkscape:label="#circle5345" />
    <g
       id="7"
       inkscape:label="#g3426">
      <path
         id="path5347"
         style="display:inline;opacity:1;fill:#00e000;fill-opacity:1;stroke:none;stroke-width:2;stroke-linecap:round;stroke-linejoin:round;stroke-miterlimit:4;stroke-dasharray:none;stroke-opacity:1"
         sodipodi:type="arc"
         sodipodi:cx="512.14575"
         sodipodi:cy="367.07648"
         sodipodi:rx="15.449186"
         sodipodi:ry="15.449186"
         sodipodi:start="0"
         sodipodi:end="5.4039271"
         d="m 527.59494,367.07648 a 15.449186,15.449186 0 0 1 -12.08051,15.07744 15.449186,15.449186 0 0 1 -17.34879,-8.50221 15.449186,15.449186 0 0 1 4.51475,-18.78524 15.449186,15.449186 0 0 1 19.31766,0.31002 l -9.8523,11.89999 z" />
      <circle
         style="display:inline;opacity:1;fill:none;fill-opacity:1;stroke:#00da00;stroke-width:2;stroke-linecap:round;stroke-linejoin:round;stroke-miterlimit:4;stroke-dasharray:none;stroke-opacity:1"
         id="circle5349"
         cx="512.14575"
         cy="367.07648"
         r="15.449186" />
    </g>
    <g
       id="8"
       inkscape:label="#g3430">
      <circle
         r="15.449186"
         cy="367.07648"
         cx="547.04407"
         style="display:inline;opacity:1;fill:#00e000;fill-opacity:1;stroke:none;stroke-width:2;stroke-linecap:round;stroke-linejoin:round;stroke-miterlimit:4;stroke-dasharray:none;stroke-opacity:1"
         id="path5351" />
      <circle
         r="15.449186"
         cy="367.07648"
         cx="547.04407"
         id="circle5353"
         style="display:inline;opacity:1;fill:none;fill-opacity:1;stroke:#00da00;stroke-width:2;stroke-linecap:round;stroke-linejoin:round;stroke-miterlimit:4;stroke-dasharray:none;stroke-opacity:1" />
    </g>
    <text
       xml:space="preserve"
       style="font-style:normal;font-weight:normal;font-size:40px;line-height:125%;font-family:sans-serif;letter-spacing:0px;word-spacing:0px;fill:#000000;fill-opacity:1;stroke:none;stroke-width:1px;stroke-linecap:butt;stroke-linejoin:miter;stroke-opacity:1"
       x="238.396"
       y="441.21988"
       id="text5411"
       sodipodi:linespacing="125%"><tspan
         sodipodi:role="line"
         id="tspan5413"
         x="238.396"
         y="441.21988"
         style="font-size:15px">extensions/generate from path/interpolate</tspan></text>
    <text
       xml:space="preserve"
       style="font-style:normal;font-weight:normal;font-size:40px;line-height:125%;font-family:sans-serif;letter-spacing:0px;word-spacing:0px;fill:#000000;fill-opacity:1;stroke:none;stroke-width:1px;stroke-linecap:butt;stroke-linejoin:miter;stroke-opacity:1"
       x="237.2467"
       y="334.68292"
       id="text5411-7"
       sodipodi:linespacing="125%"><tspan
         sodipodi:role="line"
         id="tspan5413-2"
         x="237.2467"
         y="334.68292"
         style="font-size:15px">manual</tspan></text>
  </g>
</svg>
